<?xml version="1.0" standalone="no"?>
<!DOCTYPE svg PUBLIC "-//W3C//DTD SVG 20010904//EN"
 "http://www.w3.org/TR/2001/REC-SVG-20010904/DTD/svg10.dtd">
<svg version="1.0" xmlns="http://www.w3.org/2000/svg"
 width="1280.000000pt" height="640.000000pt" viewBox="0 0 1280.000000 640.000000"
 preserveAspectRatio="xMidYMid meet">
<g transform="translate(0.000000,640.000000) scale(0.100000,-0.100000)"
fill="#e91e63" stroke="none">
<path d="M4525 5494 c-287 -21 -371 -28 -500 -45 -1249 -163 -2383 -710 -3434
-1654 -158 -142 -581 -562 -581 -577 0 -4 18 -8 40 -8 22 0 40 -4 40 -10 0 -5
-18 -10 -40 -10 -22 0 -40 -3 -40 -6 0 -14 277 -296 444 -452 1217 -1141 2522
-1733 4011 -1822 1658 -98 3518 504 5423 1757 128 84 237 153 242 153 12 0
237 -207 494 -454 386 -371 829 -854 1130 -1231 49 -60 94 -111 100 -113 10
-2 890 249 929 266 15 6 -24 50 -235 263 -549 553 -1168 1095 -1771 1553 -64
49 -117 92 -117 96 0 4 53 47 117 96 601 456 1210 989 1762 1544 221 222 260
266 245 272 -40 17 -920 268 -930 266 -6 -2 -51 -52 -99 -113 -261 -327 -601
-702 -965 -1065 -275 -276 -642 -620 -661 -620 -5 0 -76 44 -157 98 -1058 707
-2139 1229 -3147 1521 -489 142 -963 231 -1460 276 -158 15 -726 28 -840 19z
m386 -199 c269 -9 624 -54 941 -121 1039 -217 2129 -724 3199 -1487 223 -159
638 -476 638 -487 0 -11 -407 -322 -638 -487 -793 -565 -1572 -978 -2380
-1259 -538 -188 -1090 -304 -1631 -344 -190 -14 -638 -14 -815 0 -1448 115
-2742 754 -4020 1984 l-110 106 110 106 c419 403 783 699 1205 979 854 568
1716 889 2655 991 170 18 480 32 600 28 44 -2 155 -6 246 -9z"/>
<path d="M4575 4099 c-196 -23 -342 -127 -426 -304 -67 -139 -89 -268 -89
-520 0 -257 23 -392 90 -530 68 -140 169 -231 306 -277 61 -20 88 -23 229 -23
141 0 168 3 230 23 163 55 288 192 344 376 48 156 64 449 37 668 -30 237 -108
392 -250 493 -76 53 -156 82 -266 95 -93 11 -104 11 -205 -1z m211 -275 c74
-38 127 -164 141 -336 l6 -68 -250 0 -249 0 7 76 c24 249 104 359 255 351 28
-2 68 -12 90 -23z m144 -713 c0 -67 -26 -211 -50 -273 -49 -130 -182 -181
-302 -115 -63 34 -104 114 -127 242 -8 49 -15 156 -12 188 1 4 111 7 246 7
l245 0 0 -49z"/>
<path d="M1240 3895 l0 -135 130 0 130 0 0 -505 0 -505 -130 0 -130 0 0 -140
0 -140 460 0 460 0 0 140 0 140 -130 0 -130 0 0 505 0 505 130 0 130 0 0 135
0 135 -460 0 -460 0 0 -135z"/>
<path d="M2383 3953 c30 -43 152 -217 271 -387 l216 -309 -34 -46 c-87 -120
-516 -732 -516 -736 0 -3 99 -5 220 -5 l220 0 171 256 c94 141 173 253 177
250 3 -4 79 -118 168 -254 l161 -247 232 -3 c127 -1 231 0 231 3 0 3 -123 184
-274 402 l-275 397 33 46 c19 25 140 194 271 375 l237 330 -213 3 c-118 1
-219 0 -225 -2 -6 -2 -84 -110 -173 -240 -89 -130 -163 -236 -165 -236 -2 0
-75 108 -162 240 l-159 240 -233 0 -233 0 54 -77z"/>
<path d="M5740 3548 l290 -483 0 -297 0 -298 205 0 205 0 0 305 0 304 281 468
c155 257 283 471 286 476 2 4 -96 6 -218 5 l-223 -3 -143 -265 c-79 -146 -152
-280 -162 -298 l-17 -33 -168 300 -168 301 -228 0 -229 0 289 -482z"/>
<path d="M7150 3883 l0 -148 265 -224 c146 -124 265 -227 264 -230 0 -3 -123
-118 -274 -256 l-274 -250 -1 -152 0 -153 640 0 640 0 0 150 0 150 -391 2
-392 3 257 230 256 230 0 45 -1 45 -239 200 -239 200 360 3 359 2 0 150 0 150
-615 0 -615 0 0 -147z"/>
</g>
</svg>
